<?xml version="1.0" encoding="utf-8"?>
<!-- Generator: Adobe Illustrator 24.0.3, SVG Export Plug-In . SVG Version: 6.00 Build 0)  -->
<svg version="1.1" id="regular" xmlns="http://www.w3.org/2000/svg" xmlns:xlink="http://www.w3.org/1999/xlink" x="0px" y="0px"
	 viewBox="0 0 512 512" style="enable-background:new 0 0 512 512;" xml:space="preserve">
<g id="Group_15741" transform="translate(-172.442 -171.034)">
	<path id="Path_14926" d="M684.4,279.8c-0.8-9.4-4.7-18.4-11.2-25.3c-6.5-6.8-15.1-11.2-24.4-12.7l-0.4,0h-26.7v-8.2
		c0.2-5-3.7-9.1-8.6-9.3c-5-0.2-9.1,3.7-9.3,8.6c0,0.2,0,0.4,0,0.7v8.2h-34.7v-8.2c-0.2-5-4.4-8.8-9.3-8.6c-4.7,0.2-8.5,3.9-8.6,8.6
		v8.2h-34.7v-8.2c0.2-5-3.7-9.1-8.6-9.3c-5-0.2-9.1,3.7-9.3,8.6c0,0.2,0,0.4,0,0.7v8.2h-35.5v-8.2c-0.2-5-4.4-8.8-9.3-8.6
		c-4.7,0.2-8.5,3.9-8.6,8.6v8.2h-34.7v-8.2c-0.2-5-4.4-8.8-9.3-8.6c-4.7,0.2-8.5,3.9-8.6,8.6v8.2h-34.7v-8.2c0.2-5-3.7-9.1-8.6-9.3
		c-5-0.2-9.1,3.7-9.3,8.6c0,0.2,0,0.4,0,0.7v8.2h-34.7v-8.2c-0.2-5-4.4-8.8-9.3-8.6c-4.7,0.2-8.5,3.9-8.6,8.6v8.2h-34.7v-8.2
		c0.2-5-3.7-9.1-8.6-9.3c-5-0.2-9.1,3.7-9.3,8.6c0,0.2,0,0.4,0,0.7v8.2h-26.3l-0.4,0c-9.3,1.4-17.8,5.9-24.4,12.7
		c-6.4,7-10.4,15.9-11.2,25.3v0.2v308.9v0.2c0.8,9.4,4.7,18.3,11.2,25.3c6.5,6.8,15.1,11.2,24.3,12.7l0.4,0h440.2l0.4,0
		c9.3-1.5,17.8-5.9,24.4-12.7c6.4-7,10.4-15.9,11.2-25.3V279.8z M193.8,264.5c3.1-3.1,6.8-5.6,10.8-7.1c1.2-0.5,2.5-0.8,3.7-1.1
		l0.8-0.2h25.4v8.2c-0.2,5,3.7,9.1,8.6,9.3c5,0.2,9.1-3.7,9.3-8.6c0-0.2,0-0.4,0-0.7v-8.2h34.7v8.2c-0.2,5,3.7,9.1,8.6,9.3
		c5,0.2,9.1-3.7,9.3-8.6c0-0.2,0-0.4,0-0.7v-8.2h34.7v8.2c-0.2,5,3.7,9.1,8.6,9.3c5,0.2,9.1-3.7,9.3-8.6c0-0.2,0-0.4,0-0.7v-8.2
		h34.7v8.2c0.2,5,4.4,8.8,9.3,8.6c4.7-0.2,8.5-3.9,8.6-8.6v-8.2h34.7v8.2c-0.2,5,3.7,9.1,8.6,9.3c5,0.2,9.1-3.7,9.3-8.6
		c0-0.2,0-0.4,0-0.7v-8.2h35.4v8.2c-0.2,5,3.7,9.1,8.6,9.3c5,0.2,9.1-3.7,9.3-8.6c0-0.2,0-0.4,0-0.7v-8.2h34.7v8.2
		c-0.2,5,3.7,9.1,8.6,9.3c5,0.2,9.1-3.7,9.3-8.6c0-0.2,0-0.4,0-0.7v-8.2h34.7v8.2c-0.2,5,3.7,9.1,8.6,9.3c5,0.2,9.1-3.7,9.3-8.6
		c0-0.2,0-0.4,0-0.7v-8.2h25.8c5.8,1.2,11.2,4.1,15.3,8.4c2.8,3,4.9,6.7,6,10.6c0.4,1.3,0.7,2.7,0.9,4.1l0.1,1.1v50.8H186.8v-50.7
		c0-0.1,0-0.6,0.2-1.5C187.8,273.6,190.2,268.6,193.8,264.5z M663,604.3c-3.1,3.1-6.8,5.6-10.8,7.1c-1.2,0.5-2.5,0.8-3.7,1.1
		l-0.8,0.2H209.2c-5.8-1.2-11.2-4.1-15.3-8.4c-2.8-3-4.9-6.7-6-10.6c-0.4-1.3-0.7-2.7-0.9-4.1l-0.1-1.1v-0.1V345.5h483.3v242.9
		c0,0.5-0.1,1-0.2,1.5C669.1,595.3,666.7,600.3,663,604.3L663,604.3z"/>
	<path id="Path_14927" d="M444.7,393.3h-30.8c-5-0.2-9.1,3.7-9.3,8.6c-0.2,5,3.7,9.1,8.6,9.3c0.2,0,0.4,0,0.7,0h30.8
		c5-0.2,8.8-4.4,8.6-9.3C453.1,397.2,449.4,393.5,444.7,393.3z"/>
	<path id="Path_14928" d="M534.6,393.3h-30.8c-5,0.2-8.8,4.4-8.6,9.3c0.2,4.7,3.9,8.5,8.6,8.6h30.8c5-0.2,8.8-4.4,8.6-9.3
		C543.1,397.2,539.3,393.5,534.6,393.3z"/>
	<path id="Path_14929" d="M624.6,393.3h-30.8c-5,0.2-8.8,4.4-8.6,9.3c0.2,4.7,3.9,8.5,8.6,8.6h30.8c5-0.2,8.8-4.4,8.6-9.3
		C633.1,397.2,629.3,393.5,624.6,393.3z"/>
	<path id="Path_14930" d="M444.7,444.7h-30.8c-5,0.2-8.8,4.4-8.6,9.3c0.2,4.7,3.9,8.5,8.6,8.6h30.8c5-0.2,8.8-4.4,8.6-9.3
		C453.1,448.7,449.4,444.9,444.7,444.7z"/>
	<path id="Path_14931" d="M534.6,444.7h-30.8c-5,0.2-8.8,4.4-8.6,9.3c0.2,4.7,3.9,8.5,8.6,8.6h30.8c5-0.2,8.8-4.4,8.6-9.3
		C543.1,448.7,539.3,444.9,534.6,444.7z"/>
	<path id="Path_14932" d="M624.6,444.7h-30.8c-5,0.2-8.8,4.4-8.6,9.3c0.2,4.7,3.9,8.5,8.6,8.6h30.8c5-0.2,8.8-4.4,8.6-9.3
		C633.1,448.7,629.3,444.9,624.6,444.7z"/>
	<path id="Path_14933" d="M444.7,498.9h-30.8c-5,0.2-8.8,4.4-8.6,9.3c0.2,4.7,3.9,8.5,8.6,8.6h30.8c5-0.2,8.8-4.4,8.6-9.3
		C453.1,502.8,449.4,499.1,444.7,498.9z"/>
	<path id="Path_14934" d="M534.6,498.9h-30.8c-5,0.2-8.8,4.4-8.6,9.3c0.2,4.7,3.9,8.5,8.6,8.6h30.8c5-0.2,8.8-4.4,8.6-9.3
		C543.1,502.8,539.3,499.1,534.6,498.9z"/>
	<path id="Path_14935" d="M624.6,498.9h-30.8c-5,0.2-8.8,4.4-8.6,9.3c0.2,4.7,3.9,8.5,8.6,8.6h30.8c5-0.2,8.8-4.4,8.6-9.3
		C633.1,502.8,629.3,499.1,624.6,498.9z"/>
	<path id="Path_14936" d="M264.7,498.9h-30.8c-5,0.2-8.8,4.4-8.6,9.3c0.2,4.7,3.9,8.5,8.6,8.6h30.8c5,0.2,9.1-3.7,9.3-8.6
		c0.2-5-3.7-9.1-8.6-9.3C265.1,498.9,264.9,498.9,264.7,498.9L264.7,498.9z"/>
	<path id="Path_14937" d="M354.7,498.9h-30.8c-5,0.2-8.8,4.4-8.6,9.3c0.2,4.7,3.9,8.5,8.6,8.6h30.8c5-0.2,8.8-4.4,8.6-9.3
		C363.2,502.8,359.4,499.1,354.7,498.9z"/>
	<path id="Path_14938" d="M264.7,444.7h-30.8c-5,0.2-8.8,4.4-8.6,9.3c0.2,4.7,3.9,8.5,8.6,8.6h30.8c5,0.2,9.1-3.7,9.3-8.6
		c0.2-5-3.7-9.1-8.6-9.3C265.1,444.7,264.9,444.7,264.7,444.7L264.7,444.7z"/>
	<path id="Path_14939" d="M354.7,444.7h-30.8c-5,0.2-8.8,4.4-8.6,9.3c0.2,4.7,3.9,8.5,8.6,8.6h30.8c5-0.2,8.8-4.4,8.6-9.3
		C363.2,448.7,359.4,444.9,354.7,444.7z"/>
	<path id="Path_14940" d="M264.7,550.3h-30.8c-5-0.2-9.1,3.7-9.3,8.6c-0.2,5,3.7,9.1,8.6,9.3c0.2,0,0.4,0,0.7,0h30.8
		c5,0.2,9.1-3.7,9.3-8.6c0.2-5-3.7-9.1-8.6-9.3C265.1,550.3,264.9,550.3,264.7,550.3L264.7,550.3z"/>
	<path id="Path_14941" d="M354.7,550.3h-30.8c-5-0.2-9.1,3.7-9.3,8.6c-0.2,5,3.7,9.1,8.6,9.3c0.2,0,0.4,0,0.7,0h30.8
		c5-0.2,8.8-4.4,8.6-9.3C363.2,554.3,359.4,550.5,354.7,550.3z"/>
</g>
</svg>
