<?xml version="1.0" encoding="utf-8"?>
<!-- Generator: Adobe Illustrator 24.0.3, SVG Export Plug-In . SVG Version: 6.00 Build 0)  -->
<svg version="1.1" id="regular" xmlns="http://www.w3.org/2000/svg" xmlns:xlink="http://www.w3.org/1999/xlink" x="0px" y="0px"
	 viewBox="0 0 512 512" style="enable-background:new 0 0 512 512;" xml:space="preserve">
<g id="Group_15742" transform="translate(-306.688 -173.833)">
	<path id="Path_14942" d="M818.7,270.1c-0.2-2.5-0.7-4.9-1.6-7.2c-1.7-5.1-4.8-9.7-8.8-13.2c-6.1-5.3-13.6-8.7-21.5-9.7l-0.3,0
		H403.5l-0.3,0c-8,1-15.5,4.4-21.5,9.7c-4,3.6-7.1,8.1-8.8,13.2c-0.8,2.3-1.4,4.8-1.6,7.2v0.2v13.7h0l-0.3,0c-8,1-15.5,4.4-21.5,9.7
		c-4,3.6-7.1,8.1-8.8,13.2c-0.8,2.3-1.4,4.8-1.6,7.2v0.2v13.7h0h-0.3c-8,1-15.5,4.4-21.5,9.7c-4,3.6-7.1,8.2-8.8,13.3
		c-0.8,2.3-1.4,4.8-1.6,7.2v0.2v230.8v0.2c0.2,2.5,0.7,4.9,1.6,7.2c1.7,5.1,4.8,9.7,8.8,13.2c6.1,5.3,13.6,8.6,21.5,9.7l0.3,0h382.9
		l0.3,0c8-1,15.5-4.4,21.5-9.7c4-3.6,7.1-8.1,8.8-13.2c0.8-2.3,1.4-4.8,1.6-7.2v-0.2v-13.7h0l0.3,0c8-1,15.5-4.4,21.5-9.7
		c4-3.6,7.1-8.1,8.8-13.2c0.8-2.3,1.4-4.8,1.6-7.2v-0.2v-13.7h0l0.3,0c8-1,15.5-4.4,21.5-9.7c4-3.6,7.1-8.1,8.8-13.2
		c0.8-2.3,1.4-4.8,1.6-7.2v-0.2V270.3L818.7,270.1z M422.5,570.5h1l0.9-0.3c3.5-1.2,6.5-3.4,8.8-6.3c5-6.6,7.4-14.7,7-22.9
		c0-2-0.1-4.2-0.3-6.4l-0.5-5.7l-5.5-0.8l-0.2-0.1c-6-1.9-11.1-5.8-14.6-11.1c-6.5-8.7-13.3-24.8-13.3-54.3c0-2.2,0-4.4,0.1-6.8
		c0-10.6,2.3-21,6.7-30.6c4.4-9.4,12.2-16.8,21.8-20.9c7.5-3.1,15.5-4.6,23.6-4.5c2.6,0,4.8,0.2,6.3,0.3c0.7,0.1,1.3,0.1,1.7,0.2
		l0.4,0.1h0.1l0,0l0.3,0h0.3c6.7,1.1,13,3.8,18.4,8c5.3,4.1,9.6,9.2,12.6,15.2c4.4,8.9,6.8,18.7,7.2,28.7c0.2,3.7,0.3,7.2,0.3,10.6
		c0.8,16.8-2.9,33.5-10.5,48.4c-3.5,7.4-10,13-17.8,15.3l-5.5,1l-0.4,5.6c0,0.2-0.1,1.2-0.1,2.9c-0.1,6.7,1.2,13.3,3.6,19.5
		c1.7,4.2,4.5,7.9,8.1,10.8c4.3,3.3,9.7,5,15.1,4.9h1.3l0,0h1.2c10.4,0.5,20.2,4.8,27.6,12.1c6.4,5.9,11.2,13.3,13.8,21.6H371.8
		c1.6-12.6,9.7-23.5,21.3-28.6C402.4,572.4,412.4,570.4,422.5,570.5L422.5,570.5z M734.1,599c-2.7,2.3-5.8,4-9.1,5.1
		c-1,0.3-2.1,0.6-3.2,0.8l-0.7,0.1H556.6c-2.9-12.5-9.5-23.7-18.9-32.4c-10.1-9.8-23.4-15.4-37.5-15.9l-1.7,0l0,0h-0.7
		c-2.2,0.1-4.4-0.5-6.2-1.8c-2.5-2.3-4.2-5.3-4.9-8.6c-0.6-2.4-1-4.8-1.1-7.2c9.3-4.3,16.9-11.4,21.8-20.4
		c9-17.2,13.3-36.4,12.5-55.8c0-3.7-0.1-7.5-0.3-11.5c-0.5-12.3-3.6-24.4-9.2-35.4c-5.8-11.1-15.1-20-26.4-25.4
		c-4.9-2.4-10.1-4-15.5-4.7c-3.5-0.5-7.1-0.8-10.6-0.7c-14.3-0.3-28.3,3.8-40.2,11.8c-7.8,5.6-14.1,13.1-18.3,21.8
		c-5.3,11.5-8.1,24-8.2,36.6c-0.1,2.5-0.1,4.9-0.1,7.2c0,34.9,8.9,55.1,18.9,66.4c4.2,5,9.6,9,15.6,11.6c0,0.1,0,0.3,0,0.4
		c0.4,4.8-0.8,9.6-3.6,13.6c-0.4,0.6-1,1-1.6,1.4c-11.6,0.1-23,2.6-33.5,7.3c-11.4,5.2-20.5,14.3-25.6,25.8
		c-2.2,5.1-3.6,10.5-4.2,16h-17.4c-4.8-0.8-9.3-2.9-13-6.1c-2.1-1.9-3.7-4.4-4.6-7.1c-0.3-0.9-0.5-1.8-0.7-2.7l-0.1-0.6V359.2
		c0.2-1.4,0.6-2.8,1.1-4.1c0.9-2.4,2.4-4.5,4.3-6.2c2.7-2.3,5.8-4,9.1-5.1c1-0.3,2.1-0.6,3.2-0.8l0.7-0.1h381.4
		c4.8,0.8,9.3,2.9,13,6.1c2.1,1.9,3.7,4.4,4.6,7.1c0.3,0.9,0.5,1.8,0.7,2.7l0.1,0.6v229.6c-0.2,1.4-0.6,2.8-1.1,4.1
		C737.4,595.2,735.9,597.3,734.1,599L734.1,599z M771.8,544.6c-0.2,1.4-0.6,2.8-1.1,4.1c-0.9,2.4-2.4,4.5-4.3,6.2
		c-3.5,3-7.7,5-12.3,5.9V358.5v-0.2c-0.2-2.5-0.7-4.9-1.6-7.2c-1.7-5.1-4.8-9.7-8.8-13.2c-6.1-5.3-13.6-8.6-21.5-9.7h-0.3H353.6V315
		c0.2-1.4,0.6-2.8,1.1-4.1c0.9-2.4,2.4-4.5,4.3-6.2c3.5-3,7.8-5.1,12.3-5.9l0.7-0.1h381.3c4.8,0.8,9.3,2.9,13,6.1
		c2.1,1.9,3.7,4.4,4.6,7.1c0.3,0.9,0.5,1.8,0.7,2.7l0.1,0.6L771.8,544.6z M804.1,500.6c-0.2,1.4-0.6,2.8-1.1,4.1
		c-0.9,2.4-2.4,4.5-4.3,6.2c-2.7,2.3-5.8,4-9.1,5.1c-1,0.3-2.1,0.6-3.1,0.8V314.5v-0.2c-0.2-2.5-0.8-4.9-1.6-7.2
		c-1.7-5.1-4.8-9.7-8.8-13.2c-6.1-5.3-13.5-8.6-21.5-9.7l-0.3,0H385.9V271c0.2-1.4,0.6-2.8,1.1-4.1c0.9-2.4,2.4-4.5,4.3-6.2
		c3.5-3,7.8-5.1,12.3-5.9l0.7-0.1h381.3c4.8,0.8,9.3,2.9,13,6.1c2.1,1.9,3.7,4.4,4.6,7.1c0.3,0.9,0.5,1.8,0.7,2.7l0.1,0.6
		L804.1,500.6z"/>
	<rect id="Rectangle_20307" x="579.3" y="422.5" width="123.4" height="14.6"/>
	<rect id="Rectangle_20308" x="579.3" y="490.2" width="29.3" height="14.6"/>
	<rect id="Rectangle_20309" x="633.3" y="490.2" width="48.9" height="14.6"/>
	<rect id="Rectangle_20310" x="579.3" y="535.2" width="78.5" height="14.6"/>
</g>
</svg>
