<?xml version="1.0" encoding="utf-8"?>
<!-- Generator: Adobe Illustrator 24.0.3, SVG Export Plug-In . SVG Version: 6.00 Build 0)  -->
<svg version="1.1" id="regular" xmlns="http://www.w3.org/2000/svg" xmlns:xlink="http://www.w3.org/1999/xlink" x="0px" y="0px"
	 viewBox="0 0 512 512" style="enable-background:new 0 0 512 512;" xml:space="preserve">
<g id="Group_15743" transform="translate(-307.898 -296.218)">
	<path id="Path_14943" d="M339.7,584c-4.4-0.8-8.5-2.7-11.9-5.6c-2.6-2.4-4.3-5.5-4.9-9l-0.1-0.5V466.9h393.8v49.2
		c3.3-0.8,6.7-1.3,10-1.3c1.6,0,3.2,0.1,4.9,0.3V349.5v-0.2c-0.2-2.4-0.7-4.7-1.5-7c-1.7-4.9-4.6-9.3-8.4-12.8
		c-5.8-5.1-13-8.4-20.7-9.4h-0.3H338.9h-0.3c-7.7,1-14.9,4.2-20.7,9.4c-3.9,3.5-6.8,7.9-8.4,12.8c-0.8,2.3-1.3,4.6-1.5,7v0.2v219.9
		v0.2c0.2,2.4,0.7,4.7,1.5,7c1.7,4.9,4.6,9.3,8.4,12.8c5.8,5.1,13,8.4,20.7,9.4l0.3,0h65.5c-0.6-5-0.3-10,0.8-14.9L339.7,584z
		 M322.8,350.1c0.2-1.3,0.5-2.6,1-3.8c0.9-2.2,2.2-4.2,4-5.8c2.5-2.1,5.3-3.8,8.4-4.8c1-0.3,1.9-0.6,2.9-0.8l0.6-0.1h360
		c4.4,0.8,8.5,2.7,11.9,5.6c2,1.8,3.4,4,4.3,6.5c0.3,0.8,0.5,1.6,0.6,2.5l0.1,0.5v25.6H322.8V350.1z M322.8,390.6h393.8V452H322.8
		V390.6z"/>
	<path id="Path_14944" d="M812.5,536.1l7.4-0.5c-0.2-2.4-0.7-4.7-1.5-7c-1.7-4.9-4.6-9.3-8.4-12.8c-5.8-5.1-13-8.4-20.7-9.4l-0.3,0
		H427.3l-0.3,0c-7.7,1-14.9,4.2-20.7,9.4c-3.9,3.5-6.8,7.9-8.4,12.8c-0.8,2.3-1.3,4.6-1.5,7v0.2v219.9v0.2c0.2,2.4,0.7,4.7,1.5,7
		c1.7,4.9,4.6,9.3,8.4,12.8c5.8,5.1,13,8.4,20.7,9.4l0.3,0h361.6l0.3,0c7.7-1,14.9-4.3,20.7-9.4c3.9-3.5,6.8-7.9,8.4-12.8
		c0.8-2.3,1.3-4.6,1.5-7v-0.2V535.9v-0.2L812.5,536.1l-7.4,0v219.5h7.4l-7.4-0.5h0.2H805h0.2H805c-0.2,1.3-0.5,2.6-1,3.8
		c-0.9,2.2-2.2,4.2-4,5.7c-2.5,2.1-5.3,3.8-8.4,4.8c-1,0.3-1.9,0.6-2.9,0.8l-0.7,0.1h-0.1l0.3,2.7l-0.3-2.7h-0.1l0.3,2.7l-0.3-2.7
		l0.7,7.4v-7.5H427.7v7.5l0.7-7.4l-0.3,2.7l0.3-2.7h-0.1l-0.3,2.7l0.3-2.7c-4.5-0.7-8.7-2.7-12.2-5.7c-2.6-2.4-4.3-5.5-4.9-9
		l-0.1-0.6h-0.2h0.2h-0.2h0.2l-7.4,0.5h7.4V536.1h-7.4l7.4,0.5h-0.2h0.2l0,0h-0.2h0.2c0.2-1.3,0.5-2.6,1-3.8c0.9-2.2,2.2-4.2,4-5.7
		c2.5-2.1,5.3-3.8,8.4-4.8c1-0.3,1.9-0.6,2.9-0.8l0.7-0.1h0.1l-0.3-2.7l0.3,2.7h0.1l-0.3-2.7l0.3,2.7l-0.7-7.4v7.5h360.9v-7.5
		l-0.7,7.4l0.3-2.8l-0.3,2.7h0.1l0.3-2.8l-0.3,2.7c4.5,0.7,8.7,2.7,12.2,5.7c2,1.8,3.4,4,4.3,6.5c0.3,0.8,0.5,1.6,0.6,2.5l0.1,0.6
		h0.2h-0.2l0,0h0.2h-0.2L812.5,536.1L812.5,536.1L812.5,536.1z"/>
	<path id="Path_14945" d="M762.4,615.5h7.5c0-30.4-24.6-55-55-55s-55,24.6-55,55c0,30.4,24.6,55,55,55l0,0c30.4,0,55-24.6,55-55
		h-14.9c0,22.1-18,40.1-40.1,40.1c-22.1,0-40.1-18-40.1-40.1s18-40.1,40.1-40.1c10.6,0,20.8,4.2,28.4,11.7
		c7.5,7.5,11.8,17.7,11.7,28.4H762.4z"/>
	<path id="Path_14946" d="M451.5,710.1h29v-14.9h-29"/>
	<path id="Path_14947" d="M740.4,710.1h29v-14.9h-29"/>
	<path id="Path_14948" d="M513.8,710.1h43.7v-14.9h-43.7"/>
	<path id="Path_14949" d="M591.8,710.1h43.7v-14.9h-43.7"/>
	<path id="Path_14950" d="M667.3,710.1H711v-14.9h-43.7"/>
</g>
</svg>
