<?xml version="1.0" encoding="utf-8"?>
<!-- Generator: Adobe Illustrator 24.0.3, SVG Export Plug-In . SVG Version: 6.00 Build 0)  -->
<svg version="1.1" id="Capa_1" xmlns="http://www.w3.org/2000/svg" xmlns:xlink="http://www.w3.org/1999/xlink" x="0px" y="0px"
	 viewBox="0 0 512 512" style="enable-background:new 0 0 512 512;" xml:space="preserve">
<g>
	<g>
		<path d="M256,0C115,0,0,115,0,256c0,141,115,256,256,256c141,0,256-115,256-256C512,115,397,0,256,0z M256,482
			C131.4,482,30,380.6,30,256S131.4,30,256,30s226,101.4,226,226S380.6,482,256,482z"/>
	</g>
</g>
<g>
	<g>
		<path d="M384.3,243.5l-180-120c-4.6-3.1-10.5-3.4-15.4-0.7c-4.9,2.6-7.9,7.7-7.9,13.2v240c0,5.5,3,10.6,7.9,13.2
			c4.9,2.6,10.8,2.3,15.4-0.7l180-120c4.2-2.8,6.7-7.5,6.7-12.5S388.5,246.3,384.3,243.5z"/>
	</g>
</g>
</svg>
