<?xml version="1.0" encoding="utf-8"?>
<!-- Generator: Adobe Illustrator 24.0.3, SVG Export Plug-In . SVG Version: 6.00 Build 0)  -->
<svg version="1.1" id="regular" xmlns="http://www.w3.org/2000/svg" xmlns:xlink="http://www.w3.org/1999/xlink" x="0px" y="0px"
	 viewBox="0 0 512 512" style="enable-background:new 0 0 512 512;" xml:space="preserve">
<g id="Group_15739" transform="translate(-178.399 -297.823)">
	<path id="Path_14920" d="M615.4,375.4C514.8,277,354,277,253.4,375.4c-98.5,96.4-100.2,254.5-3.8,353.1c1.2,1.3,2.5,2.5,3.8,3.8
		c73.7,72,183,93.6,278.5,54.9l-6.3-15.5c-89.3,36.2-191.5,16-260.4-51.3c-91.9-89.9-93.6-237.4-3.6-329.3c1.2-1.2,2.4-2.4,3.6-3.6
		c94-92,244.4-92,338.4,0c57.2,56,81.6,137.4,64.8,215.6l16.4,3.5C702.8,522.7,676.6,435.4,615.4,375.4L615.4,375.4z"/>
	<path id="Path_14921" d="M426,357v141.2c-30.8,2.5-53.7,29.5-51.2,60.3c2.5,30.8,29.5,53.7,60.3,51.2c30.8-2.5,53.7-29.5,51.2-60.3
		c-0.8-10.4-4.6-20.4-10.8-28.8l53-53l-11.9-11.9l-52.7,52.7c-1.2-0.9-2.5-1.8-3.7-2.6c-2.3-1.3-4.7-2.4-7.2-3.4
		c-0.5-0.2-1-0.4-1.5-0.6l0,0c-2.8-1.1-5.7-2-8.7-2.7V357H426z M469.8,553.8c0.3,21.9-17.2,39.9-39.1,40.2
		c-21.9,0.3-39.9-17.2-40.2-39.1c-0.3-21.9,17.2-39.9,39.1-40.2c2.7,0,5.3,0.2,8,0.7c0.9,0.2,1.9,0.4,3,0.7c1.5,0.4,3,0.8,4.5,1.4
		c0.4,0.1,0.8,0.3,1.2,0.5c4.3,1.9,8.3,4.6,11.7,7.9l5.3,7.1l0.3-0.3C467.6,539,469.8,546.3,469.8,553.8L469.8,553.8z"/>
	<path id="Path_14922" d="M236.5,550.6c0,9.9,8,17.9,17.9,17.9c9.9,0,17.9-8,17.9-17.9c0-9.9-8-17.9-17.9-17.9h0
		C244.5,532.7,236.5,540.7,236.5,550.6z"/>
	<path id="Path_14923" d="M622.1,550.6c0-9.9-8-17.9-17.9-17.9s-17.9,8-17.9,17.9c0,9.9,8,17.9,17.9,17.9c0,0,0,0,0,0
		C614.1,568.5,622.1,560.5,622.1,550.6z"/>
	<path id="Path_14924" d="M507.8,732.7l10.3-9.5c27.2-26.2,44.5-45.5,44.5-69.3c0-18.5-11.7-37.5-39.5-37.5
		c-13.3-0.1-26.3,4.6-36.5,13.1l5.6,12.3c7.6-6.7,17.3-10.5,27.4-10.9c19.3,0,25.6,12.1,25.6,25.2c-0.2,19.5-15.1,36.2-48,67.5
		l-13.7,13.3v10.7h82.4v-14.5h-58L507.8,732.7z"/>
	<path id="Path_14925" d="M655.8,618.6h-18.9L579.3,701v11.5h60v35.2h16.5v-35.2h18.1v-13.7h-18.1L655.8,618.6z M639.3,655.7v43.1
		H597v-0.4l31.6-43.9c3.6-5.9,6.8-11.5,10.7-19.1h0.6C639.5,642.2,639.3,649,639.3,655.7L639.3,655.7z"/>
</g>
</svg>
