<?xml version="1.0" standalone="no"?>
<!DOCTYPE svg PUBLIC "-//W3C//DTD SVG 20010904//EN"
 "http://www.w3.org/TR/2001/REC-SVG-20010904/DTD/svg10.dtd">
<svg version="1.0" xmlns="http://www.w3.org/2000/svg"
 width="700.000000pt" height="700.000000pt" viewBox="0 0 700.000000 700.000000"
 preserveAspectRatio="xMidYMid meet">
<metadata>
Created by potrace 1.11, written by Peter Selinger 2001-2013
</metadata>
<g transform="translate(0.000000,700.000000) scale(0.100000,-0.100000)"
fill="#000000" stroke="none">
<path d="M5725 6995 c-5 -2 -44 -11 -85 -20 -254 -58 -465 -249 -553 -500 -14
-39 -28 -83 -32 -100 -14 -57 -14 -239 0 -312 84 -435 552 -733 979 -623 261
67 465 256 550 511 68 203 52 417 -46 617 -41 84 -64 117 -131 186 -160 164
-327 237 -557 241 -63 2 -119 1 -125 0z"/>
<path d="M1069 6926 c-2 -2 -26 -6 -54 -10 -81 -10 -105 -16 -200 -47 -403
-135 -701 -477 -791 -909 -19 -92 -25 -329 -10 -430 17 -122 61 -262 116 -370
30 -60 97 -170 109 -180 4 -3 17 -18 29 -35 13 -16 53 -61 91 -100 138 -144
266 -328 343 -493 22 -48 46 -100 53 -117 39 -83 105 -327 120 -440 19 -143
22 -182 20 -325 -8 -502 -200 -964 -554 -1332 -143 -150 -252 -329 -310 -511
l-31 -97 0 -268 c0 -212 3 -280 16 -327 8 -33 17 -67 19 -76 9 -42 72 -177
118 -253 124 -203 285 -351 493 -455 235 -117 491 -152 779 -107 79 13 221 62
320 111 124 62 214 126 318 228 238 231 544 399 877 481 58 15 119 28 135 30
179 24 198 26 330 25 146 -1 277 -10 325 -24 8 -2 31 -7 50 -10 142 -23 368
-102 520 -182 95 -50 253 -148 283 -177 7 -6 32 -27 57 -47 25 -20 61 -51 80
-69 19 -17 55 -51 80 -74 186 -171 400 -279 635 -320 103 -18 335 -14 433 8
184 40 357 117 492 217 265 197 422 450 484 779 14 76 15 329 1 399 -17 85
-47 189 -78 265 -33 84 -108 222 -136 254 -9 9 -29 34 -44 55 -62 82 -173 184
-290 265 -56 40 -218 116 -297 140 -219 68 -500 64 -720 -9 -132 -44 -328
-156 -420 -241 -168 -154 -242 -216 -347 -286 -116 -79 -309 -179 -418 -217
-27 -10 -63 -23 -80 -30 -43 -19 -270 -73 -335 -80 -30 -3 -73 -8 -95 -11 -22
-3 -94 -6 -160 -6 -348 1 -686 94 -999 276 -148 86 -176 109 -234 188 -27 38
-81 104 -121 148 -163 179 -250 304 -346 498 -107 216 -172 449 -191 682 -30
364 31 695 187 1019 94 194 199 341 357 501 88 89 188 229 242 340 32 65 82
215 96 287 5 21 9 40 9 43 1 3 5 39 10 80 41 369 -85 733 -345 990 -164 163
-387 287 -592 329 -29 6 -64 14 -78 17 -29 7 -344 16 -351 10z"/>
</g>
</svg>
