<?xml version="1.0" encoding="utf-8"?>
<!-- Generator: Adobe Illustrator 24.0.3, SVG Export Plug-In . SVG Version: 6.00 Build 0)  -->
<svg version="1.1" id="Layer_1" xmlns="http://www.w3.org/2000/svg" xmlns:xlink="http://www.w3.org/1999/xlink" x="0px" y="0px"
	 viewBox="0 0 512 512" style="enable-background:new 0 0 512 512;" xml:space="preserve">
<style type="text/css">
	.st0{opacity:0.1;}
	.st1{fill:url(#Path_14959_1_);}
</style>
<g id="Group_15769" transform="matrix(-0.899, 0.438, -0.438, -0.899, 1326.8, 931.408)" class="st0">
	
		<linearGradient id="Path_14959_1_" gradientUnits="userSpaceOnUse" x1="-303.8871" y1="1319.4961" x2="-303.8871" y2="1319.9515" gradientTransform="matrix(921.2965 4.240994e-05 1.574836e-05 929.6378 280745.4688 -1225801.625)">
		<stop  offset="0" style="stop-color:#2B0DE6"/>
		<stop  offset="1" style="stop-color:#580AB3"/>
	</linearGradient>
	<path id="Path_14959" class="st1" d="M482.8,886.7c0,21.8,9.7,41.4,24.5,55.3c19,21.1,30.7,48.7,30.7,79.4
		c0,32.1-12.8,60.8-33.2,82.2v0.7c-13.5,13.5-22.1,32.1-22.1,52.8v2.8c0,41.1,33.5,74.6,74.6,74.6c22.1,0,41.4-9.7,55.3-24.5
		c21.1-19,48.7-30.7,79.4-30.7c32.1,0,60.8,12.8,82.2,33.2h0.7c13.5,13.8,32.1,22.1,52.8,22.1c41.1,0,74.6-33.5,74.6-74.6
		s-33.5-74.6-74.6-74.6c-20.7,0-39.4,8.6-52.8,22.1h-0.3c-22.2,21.5-52,33.5-82.9,33.5c-27.3,0-52.1-9.3-72.2-24.9
		c-2.8-4.5-6.1-8.5-10-12.1v-0.3c-21.5-22.2-33.5-52-33.5-82.9c0-29.4,10.7-56.3,28.7-77.4c17.1-14.3,27-35.4,26.9-57.7
		c0-41.1-33.5-74.6-74.6-74.6C516.3,812.1,482.8,845.3,482.8,886.7"/>
</g>
</svg>
