<?xml version="1.0" encoding="utf-8"?>
<!-- Generator: Adobe Illustrator 24.0.3, SVG Export Plug-In . SVG Version: 6.00 Build 0)  -->
<svg version="1.1" id="Layer_1" xmlns="http://www.w3.org/2000/svg" xmlns:xlink="http://www.w3.org/1999/xlink" x="0px" y="0px"
	 viewBox="0 0 512 512" style="enable-background:new 0 0 512 512;" xml:space="preserve">
<style type="text/css">
	.st0{opacity:0.2;}
	.st1{fill:url(#Path_14959_2_);}
</style>
<g id="Group_15771" transform="matrix(-0.07, -0.998, 0.998, -0.07, -70.365, 856.1)" class="st0">
	
		<linearGradient id="Path_14959_2_" gradientUnits="userSpaceOnUse" x1="-115.565" y1="-123.6179" x2="-115.565" y2="-122.9695" gradientTransform="matrix(756.6935 2.768047e-05 0 763.5536 88005.6953 94755.2031)">
		<stop  offset="0" style="stop-color:#2B0DE6"/>
		<stop  offset="1" style="stop-color:#580AB3"/>
	</linearGradient>
	<path id="Path_14959_1_" class="st1" d="M331.2,197.4c0,25.4,11.3,48.4,28.6,64.6c22.2,24.6,35.9,56.9,35.9,92.8
		c0,37.5-14.9,71-38.7,96v0.8c-16.5,16.3-25.8,38.5-25.8,61.7v3.2c0,48,39.1,87.1,87.1,87.1c25.8,0,48.4-11.3,64.6-28.6
		c24.6-22.2,56.9-35.9,92.8-35.9c37.5,0,71,14.9,96,38.7h0.8c16.2,16.6,38.5,25.9,61.7,25.8c48,0,87.1-39.1,87.1-87.1
		s-39.1-87.1-87.1-87.1c-23.2,0.1-45.4,9.4-61.7,25.8h-0.4c-26,25.1-60.7,39.2-96.8,39.1c-30.6,0-60.3-10.2-84.3-29
		c-3.2-5.2-7.2-10-11.7-14.1v-0.4c-49.9-51.6-52.4-132.7-5.6-187.2c20-16.6,31.5-41.4,31.5-67.4c0-48-39.1-87.1-87.1-87.1
		C370.3,110.2,331.2,149,331.2,197.4"/>
</g>
</svg>
