<?xml version="1.0" encoding="utf-8"?>
<!-- Generator: Adobe Illustrator 24.0.3, SVG Export Plug-In . SVG Version: 6.00 Build 0)  -->
<svg version="1.1" id="Layer_1" xmlns="http://www.w3.org/2000/svg" xmlns:xlink="http://www.w3.org/1999/xlink" x="0px" y="0px"
	 viewBox="0 0 512 512" style="enable-background:new 0 0 512 512;" xml:space="preserve">
<style type="text/css">
	.st0{opacity:0.2;}
	.st1{fill:url(#Path_14959_1_);}
</style>
<g id="Group_15772" transform="matrix(0.259, -0.966, 0.966, 0.259, -132.253, 792.49)" class="st0">
	
		<linearGradient id="Path_14959_1_" gradientUnits="userSpaceOnUse" x1="-222.641" y1="-170.6418" x2="-222.641" y2="-170.0965" gradientTransform="matrix(814.4509 3.226739e-05 0 821.825 182040.6875 140449.0938)">
		<stop  offset="0" style="stop-color:#2B0DE6"/>
		<stop  offset="1" style="stop-color:#580AB3"/>
	</linearGradient>
	<path id="Path_14959" class="st1" d="M432.9,82.2c0,23,10.2,43.9,25.9,58.5c20.1,22.3,32.5,51.5,32.5,84.1c0,34-13.5,64.3-35.1,87
		v0.7c-14.3,14.3-23.4,34-23.4,55.9v2.9c0,43.5,35.5,78.9,78.9,78.9c23.4,0,43.9-10.2,58.5-25.9c22.3-20.1,51.5-32.5,84.1-32.5
		c34,0,64.3,13.5,87,35.1h0.7c14.7,15.1,34.9,23.5,55.9,23.4c43.5,0,78.9-35.5,78.9-78.9s-35.4-78.9-78.9-78.9
		c-21.9,0-41.7,9.1-55.9,23.4h-0.4c-23.5,22.8-55,35.5-87.7,35.5c-28.9,0-55.2-9.9-76.4-26.3c-2.9-4.7-6.5-9-10.6-12.8v-0.4
		c-22.8-23.5-35.5-55-35.4-87.7c0-31.1,11.3-59.6,30.3-81.9c18.1-15.1,28.6-37.5,28.5-61c0-43.5-35.5-78.9-78.9-78.9
		C468.3,3.2,432.9,38.3,432.9,82.2"/>
</g>
</svg>
