<?xml version="1.0" encoding="utf-8"?>
<!-- Generator: Adobe Illustrator 24.0.3, SVG Export Plug-In . SVG Version: 6.00 Build 0)  -->
<svg version="1.1" id="Layer_1" xmlns="http://www.w3.org/2000/svg" xmlns:xlink="http://www.w3.org/1999/xlink" x="0px" y="0px"
	 viewBox="0 0 512 512" style="enable-background:new 0 0 512 512;" xml:space="preserve">
<style type="text/css">
	.st0{opacity:0.5;}
	.st1{fill:url(#Path_14959_1_);}
</style>
<g id="Group_15813" transform="translate(855.315 168.273) rotate(107)" class="st0">
	
		<linearGradient id="Path_14959_1_" gradientUnits="userSpaceOnUse" x1="-454.0604" y1="614.041" x2="-454.0604" y2="614.8032" gradientTransform="matrix(575.1962 -2.565255e-04 2.138224e-04 580.1805 261534.1094 -355738.2812)">
		<stop  offset="0" style="stop-color:#F8C539"/>
		<stop  offset="1" style="stop-color:#F8C539"/>
	</linearGradient>
	<path id="Path_14959" class="st1" d="M79.9,392.9c0,22.7,10.1,43.3,25.6,57.7c20.7,22.7,32.1,52.3,32.1,83
		c0,33.5-13.3,63.5-34.6,85.9v0.7c-14.7,14.6-23,34.5-23.1,55.2v2.9c0.1,43,34.9,77.8,77.9,77.9c23.1,0,43.3-10.1,57.7-25.6
		c22.7-20.7,52.3-32.1,83-32.1c33.5,0,63.5,13.3,85.9,34.6h0.7c14.5,14.9,34.4,23.2,55.2,23.1c43,0.1,78-34.7,78.1-77.7
		c0.1-43-34.7-78-77.7-78.1c-20.9,0-40.9,8.3-55.5,23.1h-0.4c-23.2,22.5-54.3,35-86.6,35c-27.3,0-53.9-9.1-75.4-26
		c-2.9-4.7-6.4-8.9-10.5-12.6v-0.4c-44.6-46.1-46.8-118.6-5-167.4c33.2-27.6,37.7-76.9,10.1-110c-14.8-17.8-36.7-28.1-59.8-28.1
		C114.8,315,79.9,349.6,79.9,392.9"/>
</g>
</svg>
