<?xml version="1.0" encoding="utf-8"?>
<!-- Generator: Adobe Illustrator 24.0.3, SVG Export Plug-In . SVG Version: 6.00 Build 0)  -->
<svg version="1.1" id="Layer_1" xmlns="http://www.w3.org/2000/svg" xmlns:xlink="http://www.w3.org/1999/xlink" x="0px" y="0px"
	 viewBox="0 0 512 512" style="enable-background:new 0 0 512 512;" xml:space="preserve">
<style type="text/css">
	.st0{opacity:0.25;}
	.st1{fill:url(#Path_14959_1_);}
</style>
<g id="Group_15814" transform="translate(-132.38 826.464) rotate(-73)" class="st0">
	
		<linearGradient id="Path_14959_1_" gradientUnits="userSpaceOnUse" x1="-201.2747" y1="-148.8166" x2="-201.2747" y2="-148.3086" gradientTransform="matrix(862.8079 -3.386420e-04 4.102410e-04 870.6242 174421.8438 129736.7656)">
		<stop  offset="0" style="stop-color:#F8C539"/>
		<stop  offset="1" style="stop-color:#F8C539"/>
	</linearGradient>
	<path id="Path_14959" class="st1" d="M479.9,50.1c0,22.7,10.1,43.3,25.6,57.7c19.8,22,32.1,50.9,32.1,83
		c0,33.6-13.3,63.5-34.6,85.9v0.7c-14.1,14.1-23.1,33.6-23.1,55.2v2.9c0,42.9,35,77.9,77.9,77.9c23.1,0,43.3-10.1,57.7-25.6
		c22-19.8,50.9-32.1,83-32.1c33.6,0,63.5,13.3,85.9,34.6h0.7c14.5,14.9,34.4,23.2,55.2,23.1c42.9,0,77.9-35,77.9-77.9
		s-35-77.9-77.9-77.9c-21.6,0-41.1,9-55.2,23.1h-0.4c-23.2,22.5-54.3,35-86.6,35c-28.5,0-54.5-9.7-75.4-26
		c-2.9-4.7-6.4-8.9-10.5-12.6v-0.4c-22.5-23.2-35-54.3-35-86.6c0-30.7,11.2-58.8,29.9-80.8c17.9-14.9,28.2-37,28.1-60.2
		c0-42.9-35-77.9-77.9-77.9C514.9-27.9,479.9,6.8,479.9,50.1"/>
</g>
</svg>
