<?xml version="1.0" encoding="utf-8"?>
<!-- Generator: Adobe Illustrator 24.0.3, SVG Export Plug-In . SVG Version: 6.00 Build 0)  -->
<svg version="1.1" id="Layer_1" xmlns="http://www.w3.org/2000/svg" xmlns:xlink="http://www.w3.org/1999/xlink" x="0px" y="0px"
	 viewBox="0 0 30 30" style="enable-background:new 0 0 30 30;" xml:space="preserve">
<style type="text/css">
	.st0{fill:#580AB3;}
	.st1{fill:#424045;}
</style>
<g id="Group_15904" transform="translate(-108 -50)">
	<path id="Path_14959" class="st0" d="M108,55.5c0,1.5,0.6,2.9,1.7,3.9c2.9,3.2,2.9,8.2-0.2,11.4v0c-1,1-1.6,2.3-1.6,3.7v0.2
		c0,2.9,2.3,5.2,5.2,5.2c1.5,0,2.9-0.6,3.9-1.7c3.2-2.9,8.2-2.9,11.4,0.2h0c1,1,2.3,1.6,3.7,1.6c2.9,0,5.3-2.3,5.3-5.2
		c0-2.9-2.3-5.3-5.2-5.3c-1.4,0-2.7,0.6-3.7,1.6h0c-1.6,1.5-3.7,2.4-5.8,2.4c-1.8,0-3.6-0.6-5.1-1.7c-0.2-0.3-0.4-0.6-0.7-0.9v0
		c-3-3.1-3.2-8-0.3-11.3c2.2-1.9,2.5-5.2,0.7-7.4c-1-1.2-2.5-1.9-4-1.9C110.3,50.2,108,52.6,108,55.5"/>
	<path id="Path_14961" class="st1" d="M133,56.8c1.9,0,3.4-1.5,3.4-3.4c0-1.9-1.5-3.4-3.4-3.4c-1.9,0-3.4,1.5-3.4,3.4l0,0
		C129.6,55.2,131.1,56.7,133,56.8C133,56.8,133,56.8,133,56.8"/>
</g>
</svg>
