<?xml version="1.0" encoding="utf-8"?>
<!-- Generator: Adobe Illustrator 24.0.3, SVG Export Plug-In . SVG Version: 6.00 Build 0)  -->
<svg version="1.1" id="Layer_1" xmlns="http://www.w3.org/2000/svg" xmlns:xlink="http://www.w3.org/1999/xlink" x="0px" y="0px"
	 viewBox="0 0 133 30" style="enable-background:new 0 0 133 30;" xml:space="preserve">
<style type="text/css">
	.st0{fill:#424045;}
	.st1{fill:#580AB3;}
</style>
<g id="Group_15904" transform="translate(-108 -50)">
	<g id="Group_15767" transform="translate(151.449 52.987)">
		<path id="Path_14953" class="st0" d="M41.8,11.5c-0.5,0-1-0.3-1-0.8c0-0.1,0-0.1,0-0.2V8.3c0-0.5,0.3-1,0.8-1c0.1,0,0.1,0,0.2,0
			h14.9c0.2,0,0.3,0,0.5,0.1c0.1,0.1,0.2,0.3,0.2,0.4c0,0.2-0.1,0.4-0.2,0.6l-9,12.5H56c0.5,0,1,0.3,1,0.8c0,0.1,0,0.1,0,0.2v2.3
			c0,0.5-0.3,1-0.8,1c-0.1,0-0.1,0-0.2,0H40.8c-0.2,0-0.4,0-0.5-0.1c-0.1-0.1-0.2-0.3-0.2-0.4c0-0.2,0.1-0.4,0.2-0.6l9-12.6
			L41.8,11.5z"/>
		<path id="Path_14954" class="st0" d="M65,4.5c-0.5,0.5-1.2,0.8-1.9,0.8c-0.7,0-1.4-0.3-1.9-0.8c-0.5-0.5-0.8-1.2-0.8-1.9
			c0-0.7,0.3-1.4,0.8-1.8C61.7,0.3,62.4,0,63.1,0c0.7,0,1.4,0.3,1.9,0.8c0.5,0.5,0.8,1.1,0.8,1.8C65.9,3.3,65.6,4,65,4.5 M60.9,25
			c-0.2-0.2-0.3-0.5-0.3-0.7V8.2c0-0.3,0.1-0.5,0.3-0.7c0.2-0.2,0.5-0.3,0.7-0.3h3c0.3,0,0.5,0.1,0.7,0.3c0.2,0.2,0.3,0.5,0.3,0.7
			v16.1c0,0.5-0.3,1-0.8,1c-0.1,0-0.1,0-0.2,0h-3C61.4,25.3,61.1,25.2,60.9,25"/>
		<path id="Path_14955" class="st0" d="M24.4,24.5c-1.5-0.8-2.7-2-3.6-3.4c-1.8-2.9-1.8-6.5,0-9.4c0.9-1.4,2.1-2.6,3.6-3.4
			c1.5-0.8,3.2-1.3,4.9-1.2c1.6,0,3.3,0.4,4.7,1.1c1.4,0.8,2.7,1.9,3.6,3.2c0.1,0.2,0.2,0.3,0.2,0.5c0,0.3-0.2,0.6-0.7,0.8l-2.6,1
			c-0.5,0.2-1.1,0-1.3-0.4c-0.9-1.2-2.4-2-3.9-1.9c-1.3,0-2.6,0.5-3.5,1.4c-0.9,1-1.4,2.3-1.4,3.6c0,0.9,0.2,1.8,0.6,2.6
			c0.4,0.8,1,1.4,1.8,1.8c2.2,1.2,5,0.7,6.6-1.2c0.2-0.3,0.5-0.5,0.9-0.5c0.2,0,0.3,0,0.5,0.1l2.4,0.9c0.4,0.2,0.7,0.4,0.7,0.8
			c0,0.2-0.1,0.3-0.2,0.5c-1.7,2.9-4.9,4.6-8.2,4.4C27.6,25.7,25.9,25.3,24.4,24.5"/>
		<path id="Path_14956" class="st0" d="M17.7,21.1c0.2,0.2,0.3,0.5,0.3,0.7v2.6c0,0.5-0.3,1-0.8,1c-0.1,0-0.1,0-0.2,0H1
			c-0.5,0-1-0.3-1-0.8c0-0.1,0-0.1,0-0.2V2.1c0-0.5,0.3-1,0.8-1c0.1,0,0.1,0,0.2,0h3.3c0.5,0,1,0.3,1,0.8c0,0.1,0,0.1,0,0.2v18.7H17
			C17.3,20.8,17.5,20.9,17.7,21.1"/>
		<path id="Path_14957" class="st0" d="M83.6,24.5c1.5-0.8,2.7-2,3.6-3.4c1.8-2.9,1.8-6.5,0-9.4c-0.9-1.4-2.1-2.6-3.6-3.4
			c-1.5-0.8-3.2-1.3-4.9-1.2c-1.6,0-3.3,0.4-4.7,1.1c-1.4,0.8-2.7,1.9-3.6,3.2c-0.1,0.2-0.2,0.3-0.2,0.5c0,0.3,0.2,0.6,0.7,0.8
			l2.6,1c0.5,0.2,1.1,0,1.3-0.4c0.9-1.2,2.4-2,3.9-1.9c1.3,0,2.6,0.5,3.5,1.4c0.9,1,1.4,2.3,1.4,3.6c0,0.9-0.2,1.8-0.6,2.6
			c-0.4,0.8-1,1.4-1.8,1.8c-2.2,1.2-5,0.7-6.6-1.2c-0.2-0.3-0.5-0.5-0.9-0.5c-0.2,0-0.3,0-0.5,0.1L70.9,20c-0.4,0.2-0.7,0.4-0.7,0.8
			c0,0.2,0.1,0.3,0.2,0.5c1.7,2.9,4.9,4.6,8.2,4.4C80.4,25.7,82.1,25.3,83.6,24.5"/>
		<path id="Path_14958" class="st0" d="M31.1,18c-0.5,0.5-1.2,0.8-1.9,0.8c-0.7,0-1.4-0.3-1.9-0.8c-0.5-0.5-0.8-1.1-0.8-1.8
			c0-0.7,0.3-1.4,0.8-1.8c0.5-0.5,1.2-0.8,1.9-0.8c0.7,0,1.4,0.3,1.9,0.8c0.5,0.5,0.8,1.1,0.8,1.8C31.9,16.8,31.6,17.5,31.1,18"/>
	</g>
	<path id="Path_14959" class="st1" d="M108,55.5c0,1.5,0.6,2.9,1.7,3.9c2.9,3.2,2.9,8.2-0.2,11.4v0c-1,1-1.6,2.3-1.6,3.7v0.2
		c0,2.9,2.3,5.2,5.2,5.2c1.5,0,2.9-0.6,3.9-1.7c3.2-2.9,8.2-2.9,11.4,0.2h0c1,1,2.3,1.6,3.7,1.6c2.9,0,5.3-2.3,5.3-5.2
		c0-2.9-2.3-5.3-5.2-5.3c-1.4,0-2.7,0.6-3.7,1.6h0c-1.6,1.5-3.7,2.4-5.8,2.4c-1.8,0-3.6-0.6-5.1-1.7c-0.2-0.3-0.4-0.6-0.7-0.9v0
		c-3-3.1-3.2-8-0.3-11.3c2.2-1.9,2.5-5.2,0.7-7.4c-1-1.2-2.5-1.9-4-1.9C110.3,50.2,108,52.6,108,55.5"/>
	<path id="Path_14961" class="st0" d="M133,56.8c1.9,0,3.4-1.5,3.4-3.4c0-1.9-1.5-3.4-3.4-3.4c-1.9,0-3.4,1.5-3.4,3.4l0,0
		C129.6,55.2,131.1,56.7,133,56.8C133,56.8,133,56.8,133,56.8"/>
</g>
</svg>
